<svg xmlns="http://www.w3.org/2000/svg" xmlns:xlink="http://www.w3.org/1999/xlink" width="414" height="1600" viewBox="0 0 414 1600">
  <defs>
    <clipPath id="clip-path">
      <rect id="Rectangle_148" data-name="Rectangle 148" width="414" height="1600" transform="translate(1700 4150)" fill="#fff"/>
    </clipPath>
  </defs>
  <g id="Mask_Group_47" data-name="Mask Group 47" transform="translate(-1700 -4150)" clip-path="url(#clip-path)">
    <g id="Group_124" data-name="Group 124">
      <path id="Path_50" data-name="Path 50" d="M682.171,2283.265c-35.61-43-60.78-18.543-95.5,18.428s-91.687-49.91-133.268-49.91-57.218,74.126-91.867,43.069-112.621,108.266-112.621,108.266,314.069,24.759,417.225,7,65.133-55.823,73.222-74.431" transform="translate(1356.518 3205.134)" fill="#e9f8ff"/>
      <path id="Path_51" data-name="Path 51" d="M796.544,2279.744c-45.011-38.191-76.825-16.469-120.71,16.367s-115.891-44.329-168.449-44.329-72.322,65.837-116.119,38.253S248.916,2386.2,248.916,2386.2s396.978,21.99,527.366,6.219,82.328-49.581,92.552-66.108" transform="translate(1333.563 1936.891)" fill="#e9f8ff"/>
      <path id="Path_49" data-name="Path 49" d="M419.964,2249.881s-114.729-71.654-142.836-32.548-73.375-31.434-164.377-9.456-153.246,50.094-199.51-25.688,103.574,136.2,103.574,136.2,149.175,26.5,250.594,11.649,218.859-52.434,168.77-72.559" transform="translate(1678.105 2929.177)" fill="#bacce6"/>
      <path id="Path_47" data-name="Path 47" d="M-70.4,2241.819s130.937-40.924,167.892-15.7,75.835-18.858,167.432-25.991,165.9,40.863,215.989-20.954-112.129,111.1-112.129,111.1-294.95,14.438-404.746,2.325S-70.4,2241.819-70.4,2241.819" transform="translate(1734.619 2083.88)" fill="#bacce6"/>
      <path id="Path_48" data-name="Path 48" d="M-70.4,2271.159S60.534,2214.436,97.489,2249.4s75.835-26.139,167.432-36.026,165.9,56.639,215.989-29.044-112.129,154-112.129,154-294.95,20.013-404.746,3.222S-70.4,2271.159-70.4,2271.159" transform="translate(1796.057 2471.962)" fill="#bacce6"/>
      <path id="Path_52" data-name="Path 52" d="M-70.4,2241.819s130.937-40.924,167.892-15.7,75.835-18.858,167.432-25.991,165.9,40.863,215.989-20.954-112.129,111.1-112.129,111.1-294.95,14.438-404.746,2.325S-70.4,2241.819-70.4,2241.819" transform="translate(1714.627 3349.369)" fill="#bacce6"/>
    </g>
  </g>
</svg>
