<svg xmlns="http://www.w3.org/2000/svg" xmlns:xlink="http://www.w3.org/1999/xlink" width="1968" height="804" viewBox="0 0 1968 804">
  <defs>
    <clipPath id="clip-path">
      <rect id="Rectangle_161" data-name="Rectangle 161" width="1968" height="804" transform="translate(-5313 9586)" fill="#fff" stroke="#707070" stroke-width="1"/>
    </clipPath>
  </defs>
  <g id="Mask_Group_50" data-name="Mask Group 50" transform="translate(5313 -9586)" clip-path="url(#clip-path)">
    <g id="Group_128" data-name="Group 128" transform="translate(-7320.175 -80.551)">
      <path id="Path_64" data-name="Path 64" d="M2177.262,2350.242c-158.5-134.48-270.52-57.992-425.053,57.634s-408.082-156.093-593.153-156.093-254.666,231.832-408.885,134.7-501.256,338.6-501.256,338.6,1397.866,77.433,1857,21.9,289.9-174.589,325.9-232.785" transform="translate(879.646 7529.894)" fill="#7b9bcb"/>
      <path id="Subtraction_12" data-name="Subtraction 12" d="M1076.8,766.608c-61.868,0-121.087-.39-176.013-1.159-58.518-.82-113.759-2.092-164.188-3.782-53.416-1.79-102.887-4.1-147.04-6.859C543.01,751.9,501.1,748.4,464.994,744.416c-25.476-2.81-49.53-6.027-71.494-9.559V486.836c35.245-9.555,70.851-18.6,105.829-26.9,44.518-10.554,87.93-19.855,129.032-27.644C734.412,412.2,825.4,402.009,898.8,402.009c18.953,0,36.961.69,53.523,2.052a430.934,430.934,0,0,1,48.342,6.557,267.337,267.337,0,0,1,41.9,11.665,183.763,183.763,0,0,1,18.143,7.936,144.024,144.024,0,0,1,16.06,9.44,215.673,215.673,0,0,0,27.891,16.188,190.2,190.2,0,0,0,57.175,17.21,219.2,219.2,0,0,0,29.732,1.973c28.388,0,59.829-4.936,98.947-15.535,16.161-4.379,33.738-9.727,55.316-16.832,19.242-6.335,39.191-13.252,60.311-20.574,111.8-38.76,250.937-87,438.161-101.578,14.873-1.158,30.147-2.032,45.4-2.6,14.632-.543,29.692-.818,44.762-.818,48.265,0,99.281,2.769,155.962,8.465,51.46,5.172,100.915,12.037,147.158,18.625,6.41.913,12.879,1.839,18.587,2.655l.258.037c20.052,2.868,38.99,5.578,58.076,8.186v378.98C2244.716,737.378,1617.115,766.607,1076.8,766.608Z" transform="translate(1593.583 9671)" fill="#bacce6"/>
    </g>
  </g>
</svg>
