<svg xmlns="http://www.w3.org/2000/svg" width="2185.021" height="605.141" viewBox="0 0 2185.021 605.141">
  <g id="Group_129" data-name="Group 129" transform="translate(-1351.542 -6736.999)">
    <path id="Path_59" data-name="Path 59" d="M2177.262,2350.242c-158.5-134.48-270.52-57.992-425.053,57.634s-408.082-156.093-593.153-156.093-254.666,231.832-408.885,134.7-501.256,338.6-501.256,338.6,1397.866,77.433,1857,21.9,289.9-174.589,325.9-232.785" transform="translate(1102.626 4485.216)" fill="#e9f8ff"/>
    <path id="Subtraction_10" data-name="Subtraction 10" d="M1143.484,695.678c-61.868,0-121.087-.3-176.013-.9-58.514-.634-113.755-1.617-164.188-2.924-53.43-1.384-102.9-3.168-147.04-5.3-46.555-2.251-88.466-4.954-124.57-8.033-27.368-2.334-53.058-5.027-76.359-8-22.4-2.861-43.2-6.061-61.815-9.513V493.963c19.9-4.552,52.17-11.712,92.843-19.972,49.107-9.972,97.726-18.964,144.507-26.725,60.2-9.987,117-17.865,168.826-23.415,29.811-3.192,58.4-5.656,84.987-7.321,28.8-1.8,55.99-2.72,80.812-2.72,18.953,0,36.96.534,53.52,1.586,17.374,1.1,33.64,2.81,48.344,5.07a330.688,330.688,0,0,1,41.9,9.018c6.415,1.869,12.519,3.933,18.143,6.135a157.926,157.926,0,0,1,16.06,7.3,237.579,237.579,0,0,0,27.891,12.515,229.159,229.159,0,0,0,28.28,8.484,243.284,243.284,0,0,0,28.895,4.821,282.657,282.657,0,0,0,29.732,1.525c28.388,0,59.829-3.816,98.947-12.01,16.165-3.386,33.742-7.521,55.316-13.012,19.232-4.9,39.186-10.244,60.311-15.906,111.8-29.965,250.937-67.257,438.161-78.529,14.873-.9,30.147-1.571,45.4-2.008,14.625-.419,29.685-.632,44.762-.632,48.265,0,99.281,2.141,155.963,6.545,51.461,4,100.914,9.306,147.157,14.4l10.242,1.13V672.863c-88.659,3.036-269.419,8.87-483.909,13.829-117.13,2.709-230.445,4.838-336.8,6.329C1368.042,694.784,1250.18,695.677,1143.484,695.678Z" transform="translate(1090.052 6646.462)" fill="#bacce6"/>
  </g>
</svg>
