<svg id="圖層_1" data-name="圖層 1" xmlns="http://www.w3.org/2000/svg" viewBox="0 0 1366 328">
  <defs>
    <style>
      .cls-1 {
        fill: #7b9bcb;
      }
    </style>
  </defs>
  <path class="cls-1" d="M-1,105H62s18-2,75-49h22.8s4.6,19,51.2,47l431.1,2S672,109,686,89h10s4,1,9,8c3.4,4.7,13.4,4.9,19.7,4.5a6.7,6.7,0,0,0,5.8-4.3c.8-2.2,3-13.9,8.5-11.2,8.3,4.2,15.3,11.1,17.4,5h10c2.8,5.1,20.3,6.7,67.1,14,51.5,8,176.5-6,176.5-6s9,0,57-33h22s33,30,80.5,39c0,0,14.5,0,26.5-17.9h3.9a6.5,6.5,0,0,1,5.7,3.2c1.8,3,4.8,7,8.9,7.3C1221,98,1225,79,1225,79h9s10.7,23,27.9,26h98.6a6.5,6.5,0,0,1,6.5,6.5V181H-1Z"/>
</svg>
