<svg xmlns="http://www.w3.org/2000/svg" width="485.213" height="32.075" viewBox="0 0 485.213 32.075">
  <path id="Intersection_1" data-name="Intersection 1" d="M.221,145.321c.847-4.878,2.446-13.534,4.759-23.861q.792-3.536,1.612-6.959H484.565c1.2,6.644,2.417,14.137-5.632,21.2-3.621-2.786-9.936-4.2-18.77-4.2-3.412,0-7.249.214-11.4.635-42.751,4.342-164.4,13.071-165.629,13.158h-.394a657.709,657.709,0,0,1-92.105-7.421c-8.357-1.3-20.2-1.955-35.2-1.955-52.766,0-131.853,8.123-155.215,10.656Z" transform="translate(-0.221 -114.501)" fill="#7b9bcb"/>
</svg>
