<svg xmlns="http://www.w3.org/2000/svg" width="28.253" height="28.254" viewBox="0 0 28.253 28.254">
  <path id="shopping-cart" d="M20.405,26.114a3.139,3.139,0,1,0,3.139-3.139A3.138,3.138,0,0,0,20.405,26.114Zm-15.7,0a3.139,3.139,0,1,0,3.139-3.139A3.139,3.139,0,0,0,4.709,26.114Zm5.567-7.578,17.373-4.963a.885.885,0,0,0,.6-.8V4.139H6.279V1.628A.63.63,0,0,0,5.652,1H.626A.629.629,0,0,0,0,1.628V4.139H3.139l3,14.059.141,1.48v2.588a.631.631,0,0,0,.628.628H27.626a.632.632,0,0,0,.628-.628V19.836H10.6C8.793,19.836,8.755,18.971,10.276,18.536Z" transform="translate(0 -1)" fill="#bacce6"/>
</svg>
