<svg xmlns="http://www.w3.org/2000/svg" width="1921" height="182.819" viewBox="0 0 1921 182.819">
  <path id="Subtraction_1" data-name="Subtraction 1" d="M1435.474,251.145c-34.265,0-73.017-.771-118.47-2.359-48.7-1.7-105.508-4.348-173.68-8.092-86.152-4.432-166.367-7.731-238.417-9.8C840.69,229.04,780.756,228.1,726.77,228.1c-51.726,0-98.693.824-143.586,2.519-43.012,1.624-77.431,3.815-102.611,5.542-11.272.773-21.917,1.542-32.212,2.285-42.941,3.1-80.025,5.776-122.285,5.776-37.64,0-77.056-2.109-124.045-6.636-10.328-1.015-20.264-2.01-29.531-2.957V101.972c28.364-2.665,75.353-6.857,138.136-11.7,75.717-5.84,154.885-11.124,235.3-15.705,35.362-2.015,71.5-2.994,110.489-2.994,40.724,0,83.716,1.051,135.3,3.307,45.873,2.006,92.3,4.69,141.463,7.531,8.587.5,17.466,1.01,26.323,1.518,49.687,2.851,107.872,6.094,169.661,8.495,66.872,2.6,129.091,3.861,190.214,3.861,19.414,0,39.038-.13,58.327-.387,66.18-.881,124.232-3.264,177.474-7.285,46.026-3.476,81.035-7.6,111.922-11.237h.009c20.812-2.451,40.469-4.766,59.8-6.4,21.332-1.805,40.57-2.646,60.543-2.646,22.5,0,46.5,1.09,73.369,3.331,28.83,2.4,61.376,6.159,99.5,11.478,54.119,7.551,98.924,12.618,133.17,15.059V240.573L1976,232.382c-18.316-.345-37.459-.52-56.9-.52-49.153,0-101.8,1.112-156.467,3.3-68.392,2.744-115.793,6.052-157.614,8.972h-.006C1548.942,248.053,1504.655,251.145,1435.474,251.145Z" transform="translate(-172.5 -68.326)" fill="#fff"/>
</svg>
