<svg xmlns="http://www.w3.org/2000/svg" width="16.543" height="15.358" viewBox="0 0 16.543 15.358">
  <path id="whatsapp" d="M23.929,19.7c-.4-.205-2.408-1.188-2.78-1.323s-.642-.205-.918.205-1.053,1.323-1.29,1.6-.475.308-.879.1a11.211,11.211,0,0,1-3.275-2.023,12.422,12.422,0,0,1-2.266-2.819c-.237-.4-.026-.63.18-.828.186-.18.4-.476.61-.713a2.642,2.642,0,0,0,.4-.68.751.751,0,0,0-.032-.713c-.1-.205-.918-2.209-1.252-3.024-.328-.8-.668-.687-.918-.7S11,8.77,10.734,8.77a1.5,1.5,0,0,0-1.085.508,4.562,4.562,0,0,0-1.425,3.4,7.925,7.925,0,0,0,1.663,4.212c.205.269,2.87,4.386,6.954,6.144.97.417,1.727.668,2.318.86a5.623,5.623,0,0,0,2.562.16,4.188,4.188,0,0,0,2.748-1.932,3.375,3.375,0,0,0,.237-1.932c-.1-.18-.366-.283-.777-.488Z" transform="translate(-8.225 -8.77)"/>
</svg>
