<svg aria-hidden="true" style="position: absolute; width: 0; height: 0; overflow: hidden;" version="1.1" xmlns="http://www.w3.org/2000/svg" xmlns:xlink="http://www.w3.org/1999/xlink">
<defs>
<symbol id="icon-airbnb" viewBox="0 0 32 32">
<path fill="#ff5a5f" style="fill: var(--color1, #ff5a5f)" d="M15.997 24.356c-1.803-2.261-2.863-4.243-3.216-5.94-0.351-1.368-0.212-2.463 0.388-3.285 0.636-0.947 1.583-1.407 2.827-1.407s2.189 0.46 2.825 1.416c0.595 0.813 0.744 1.909 0.381 3.285-0.388 1.731-1.447 3.712-3.205 5.931zM28.793 25.876c-0.247 1.66-1.379 3.037-2.933 3.709-3.001 1.307-5.973-0.777-8.517-3.604 4.207-5.267 4.984-9.367 3.179-12.019-1.060-1.52-2.577-2.26-4.524-2.26-3.924 0-6.081 3.32-5.233 7.173 0.493 2.085 1.801 4.456 3.887 7.107-1.307 1.445-2.545 2.473-3.64 3.109-0.848 0.459-1.66 0.743-2.437 0.811-3.569 0.532-6.368-2.931-5.097-6.503 0.176-0.46 0.527-1.307 1.127-2.615l0.033-0.071c1.951-4.235 4.32-9.048 7.043-14.387l0.071-0.176 0.773-1.487c0.6-1.096 0.847-1.587 1.801-2.191 0.46-0.279 1.025-0.419 1.66-0.419 1.272 0 2.263 0.743 2.687 1.341 0.211 0.319 0.46 0.743 0.776 1.271l0.744 1.451 0.107 0.212c2.72 5.336 5.092 10.14 7.035 14.385l0.035 0.033 0.711 1.627 0.424 1.019c0.324 0.816 0.392 1.628 0.292 2.481zM30.419 22.691c-0.248-0.777-0.672-1.695-1.2-2.791v-0.040c-2.516-5.34-4.853-10.14-7.072-14.453l-0.148-0.216c-1.581-3.243-2.713-5.191-6.001-5.191-3.251 0-4.632 2.259-6.044 5.196l-0.108 0.213c-2.224 4.312-4.56 9.119-7.068 14.456v0.071l-0.744 1.625c-0.28 0.672-0.423 1.024-0.46 1.129-1.8 4.949 1.909 9.296 6.4 9.296 0.036 0 0.176 0 0.352-0.036h0.496c2.333-0.284 4.737-1.767 7.176-4.421 2.437 2.651 4.844 4.137 7.173 4.421h0.496c0.176 0.036 0.317 0.036 0.352 0.036 4.491 0.004 8.2-4.347 6.4-9.296z"></path>
</symbol>
<symbol id="icon-apacheflink" viewBox="0 0 32 32">
<path fill="#e6526f" style="fill: var(--color2, #e6526f)" d="M11.069 31.968c-0.773-0.059-1.787-0.249-2.639-0.496-1.503-0.457-2.81-1.146-3.952-2.035l0.027 0.020c-0.491-0.38-1.537-1.427-1.964-1.964-1.587-1.999-2.395-4.173-2.475-6.664-0.004-0.108-0.006-0.235-0.006-0.362 0-1.107 0.162-2.176 0.463-3.186l-0.020 0.079c0.091-0.305 0.095-0.34 0.076-0.707-0.004-0.075-0.006-0.163-0.006-0.252 0-0.438 0.051-0.865 0.146-1.274l-0.007 0.038c0.081-0.325 0.307-0.813 0.453-0.989l0.091-0.107-0.013 0.579c-0.016 0.829-0.015 0.831 0.249 0.367 0.626-1.108 1.39-2.055 2.283-2.859l0.010-0.009c0.259-0.235 0.492-0.451 0.517-0.479s0.12-0.237 0.212-0.465c0.276-0.685 0.523-1.061 0.791-1.197 0.233-0.12 0.445-0.059 0.495 0.139 0.003 0.032 0.005 0.070 0.005 0.108 0 0.064-0.005 0.127-0.015 0.188l0.001-0.007c-0.011 0.056-0.018 0.119-0.018 0.185 0 0.010 0 0.020 0 0.030l-0-0.001c0.007 0 0.209-0.105 0.452-0.233 0.867-0.463 1.487-0.728 2.792-1.189 0.431-0.153 0.837-0.3 0.901-0.328 0.368-0.155 0.567-0.675 0.531-1.385-0.005-0.244-0.055-0.474-0.141-0.686l0.005 0.013c-0.061-0.181-0.116-0.321-0.177-0.458l0.014 0.035c-0.067-0.131-0.057-0.153 0.051-0.123 0.311 0.089 0.683 0.389 0.916 0.74 0.136 0.205 0.364 0.696 0.365 0.789 0 0.075 0.048 0.040 0.151-0.112 0.409-0.605 0.412-1.293 0.005-1.984-0.148-0.253-0.572-0.671-0.86-0.849-0.369-0.227-0.592-0.293-0.987-0.289-0.305 0.003-0.333-0.003-0.423-0.076-0.111-0.093-0.173-0.292-0.145-0.457 0.033-0.189 0.355-0.8 0.575-1.093 0.26-0.347 0.848-0.912 1.223-1.179 1.216-0.864 2.741-1.387 4.515-1.547 0.427-0.040 0.443-0.043 0.531-0.137 0.083-0.088 0.109-0.097 0.293-0.097 0.177 0 0.227 0.016 0.425 0.129 0.209 0.121 0.231 0.128 0.319 0.088 0.067-0.029 0.176-0.036 0.373-0.023 0.225 0.013 0.293 0.009 0.352-0.032 0.103-0.072 0.228-0.063 0.413 0.032 0.089 0.044 0.352 0.124 0.584 0.173 1.092 0.243 1.969 0.581 2.804 1.087 0.148 0.089 0.275 0.163 0.281 0.163 0.012 0-0.004-0.117-0.043-0.328l-0.017-0.089 0.203 0.12c0.267 0.16 0.507 0.409 0.639 0.661 0.092 0.177 0.113 0.2 0.161 0.169 0.039-0.023 0.085-0.025 0.147-0.004 0.072 0.025 0.124 0.1 0.267 0.391 0.099 0.199 0.189 0.369 0.2 0.381 0.013 0.013 0.112-0.077 0.223-0.197 0.235-0.256 0.449-0.4 0.733-0.497 0.267-0.089 0.427-0.071 0.547 0.064 0.12 0.133 0.12 0.307-0.005 0.569-0.24 0.507-0.347 0.971-0.307 1.325l0.023 0.183 0.144-0.101c0.133-0.093 0.163-0.101 0.407-0.101 0.256 0 0.533 0.077 0.533 0.149 0 0.016-0.068 0.111-0.151 0.212-0.245 0.301-0.307 0.471-0.303 0.835 0.004 0.335 0.019 0.411 0.236 1.157 0.079 0.273 0.171 0.631 0.203 0.793 0.015 0.11 0.043 0.21 0.083 0.304l-0.003-0.008c0.053 0 0.417-0.301 0.637-0.525 0.132-0.133 0.249-0.243 0.26-0.243 0.044 0 0.121 0.253 0.156 0.501 0.040 0.293 0.009 0.576-0.097 0.923-0.064 0.208-0.065 0.227-0.016 0.329 0.081 0.171 0.093 0.355 0.037 0.592-0.093 0.403-0.265 0.68-0.711 1.144l-0.229 0.24-0.037 0.32c-0.021 0.177-0.067 0.443-0.101 0.589-0.026 0.084-0.042 0.182-0.047 0.283l-0 0.002c0.009 0.009 0.039-0.003 0.065-0.025 0.071-0.059 0.288-0.025 0.504 0.077 0.444 0.211 1.296 0.988 1.629 1.488l0.18 0.268 0.287 0.072c1.179 0.299 2.096 1.155 2.603 2.431 0.16 0.4 0.272 0.911 0.352 1.581 0.025 0.205 0.080 0.387 0.24 0.785 0.113 0.284 0.224 0.596 0.244 0.692 0.056 0.257 0.024 0.589-0.080 0.835-0.049 0.115-0.116 0.307-0.151 0.427-0.121 0.431-0.319 0.711-0.649 0.924-0.107 0.068-0.272 0.147-0.369 0.173-0.183 0.049-0.799 0.333-0.8 0.369-0.001 0.011 0.043 0.029 0.097 0.040 0.293 0.059 0.679 0.336 0.776 0.56 0.020 0.047 0.097 0.164 0.172 0.263 0.284 0.373 0.353 0.716 0.251 1.257l-0.053 0.284 0.083 0.101c0.293 0.361 0.545 0.829 0.637 1.189 0.131 0.505 0.128 0.996-0.007 1.737l-0.059 0.313 0.107 0.155c0.205 0.297 0.245 0.581 0.141 0.983-0.259 1.003-1.021 1.747-2.084 2.029l-0.208 0.055v0.277c0 0.213-0.016 0.312-0.067 0.423-0.090 0.188-0.238 0.336-0.421 0.423l-0.005 0.002c-0.299 0.132-0.744-0.009-0.963-0.307-0.109-0.147-0.119-0.151-0.277-0.151-0.108-0.002-0.212-0.020-0.309-0.051l0.008 0.002c-0.331-0.116-0.483-0.343-0.491-0.729l-0.005-0.224-0.208-0.125c-0.288-0.17-0.536-0.373-0.748-0.607l-0.002-0.003-0.2-0.22 0.104 0.207c0.448 0.889-0.060 1.853-1.128 2.139-0.219 0.060-0.385 0.071-1.323 0.093-1.447 0.035-12.025 0.029-12.487-0.007zM29.077 31.433c0.135-0.117 0.191-0.416 0.107-0.577-0.077-0.153-0.187-0.2-0.512-0.227-0.369-0.027-0.472-0.080-0.472-0.237 0-0.204 0.033-0.213 0.853-0.224 0.796-0.011 1.036-0.049 1.384-0.227 0.307-0.155 0.696-0.637 0.732-0.909l0.017-0.127-0.22 0.063c-0.833 0.233-1.956 0.276-2.777 0.105-0.887-0.187-1.707-0.693-1.996-1.235l-0.072-0.135-0.040 0.093c-0.026 0.112-0.042 0.24-0.042 0.372 0 0.026 0.001 0.052 0.002 0.077l-0-0.004c-0.003 0.329 0.004 0.367 0.097 0.56 0.193 0.407 0.613 0.801 1.123 1.057 0.267 0.135 0.273 0.14 0.256 0.237l-0.056 0.323c-0.049 0.283-0.021 0.435 0.108 0.583 0.127 0.144 0.311 0.234 0.517 0.234 0.008 0 0.015-0 0.023-0l-0.001 0c0.125 0 0.203 0.019 0.256 0.060 0.275 0.213 0.561 0.269 0.713 0.137zM22.405 31.188c0.619-0.089 0.819-0.092 1.151-0.019 0.68 0.151 1.381 0.031 1.689-0.291 0.203-0.211 0.264-0.547 0.139-0.753-0.155-0.253-0.56-0.427-1.008-0.427-0.312 0-0.473 0.045-1.019 0.277-0.13 0.061-0.297 0.126-0.467 0.182l-0.036 0.010c-0.232 0.047-0.353-0.083-0.353-0.372 0-0.309 0.087-0.411 0.747-0.88 0.569-0.4 0.908-0.863 0.992-1.347 0.037-0.225-0.004-0.536-0.081-0.611-0.112-0.055-0.242-0.104-0.379-0.139l-0.015-0.003c-1.107-0.325-1.616-0.748-2.097-1.744-0.172-0.341-0.331-0.743-0.454-1.16l-0.013-0.052c-0.069-0.238-0.138-0.431-0.217-0.619l0.014 0.039c-0.36-0.793-1.236-1.511-2.244-1.836-0.427-0.139-0.697-0.187-1.377-0.245-0.332-0.027-0.591-0.054-0.848-0.086l0.096 0.010-0.16-0.024 0.224-0.115c0.275-0.139 0.475-0.204 0.768-0.247 0.419-0.063 0.704-0.073 1.009-0.040 1.229 0.139 2.156 0.771 2.811 1.917 0.243 0.427 0.417 0.863 0.587 1.469 0.196 0.701 0.373 1.056 0.712 1.413 0.547 0.58 1.279 0.84 2.359 0.84 0.237 0 0.533-0.016 0.656-0.033 0.504-0.071 1.027-0.251 1.413-0.484 0.424-0.255 0.819-0.723 0.947-1.12 0.039-0.12 0.085-0.22 0.104-0.22s0.139 0.024 0.267 0.053c0.219 0.052 0.251 0.052 0.515 0 0.424-0.080 0.537-0.072 0.645 0.043 0.163 0.173 0.367 0.205 0.6 0.093 0.094-0.051 0.173-0.118 0.236-0.198l0.001-0.002c0.077-0.107 0.093-0.157 0.085-0.276-0.009-0.143-0.013-0.147-0.257-0.307-0.094-0.056-0.175-0.114-0.251-0.178l0.003 0.002c0-0.009 0.060-0.057 0.135-0.107 0.103-0.067 0.167-0.085 0.256-0.077 0.137 0.012 0.139-0.005 0.007-0.263-0.114-0.234-0.3-0.418-0.529-0.525l-0.007-0.003c-0.449-0.219-0.959-0.219-1.527 0-0.341 0.133-0.393 0.135-0.627 0.032-0.308-0.136-0.621-0.184-1.047-0.16-0.523 0.032-0.868-0.023-1-0.157l-0.097-0.097 0.42-0.039c0.653-0.060 0.843-0.117 1.421-0.436 0.357-0.197 0.571-0.251 1.107-0.281 0.773-0.044 1.14-0.176 1.347-0.484 0.073-0.109 0.111-0.141 0.144-0.12 0.062 0.016 0.134 0.026 0.207 0.026 0.407 0 0.746-0.286 0.829-0.668l0.001-0.006c0.021-0.112 0.016-0.119-0.317-0.413-0.123-0.102-0.234-0.207-0.338-0.319l-0.002-0.002c0-0.013 0.052-0.067 0.113-0.123 0.191-0.167 0.327-0.139 0.712 0.144 0.067 0.049 0.072 0.049 0.072-0.007 0-0.127-0.079-0.333-0.304-0.813-0.265-0.56-0.287-0.627-0.337-1.072-0.16-1.373-0.9-2.523-2.056-3.193-0.078-0.049-0.17-0.1-0.266-0.146l-0.017-0.007c-0.012 0-0.067 0.095-0.124 0.211-0.065 0.128-0.139 0.238-0.226 0.338l0.002-0.002c-0.1 0.104-0.143 0.127-0.243 0.127-0.141 0-0.24-0.073-0.24-0.177 0-0.040 0.043-0.164 0.096-0.276 0.16-0.345 0.207-0.587 0.16-0.86-0.107-0.637-0.707-1.355-1.456-1.747-0.293-0.152-0.327-0.147-0.345 0.041-0.020 0.216 0.027 0.653 0.103 0.947 0.035 0.136 0.156 0.461 0.269 0.721 0.291 0.667 0.379 0.96 0.38 1.253 0.001 0.013 0.001 0.029 0.001 0.044 0 0.114-0.019 0.223-0.055 0.324l0.002-0.007c-0.089 0.175-0.216 0.319-0.372 0.424l-0.004 0.002c-0.111 0.057-0.233 0.060-0.209 0.005 0.169-0.387 0.225-0.575 0.239-0.812 0.019-0.333-0.027-0.487-0.312-1.072s-0.365-0.907-0.348-1.389l0.013-0.339-0.077 0.153c-0.127 0.226-0.237 0.404-0.352 0.578l0.020-0.033c-0.407 0.629-0.537 0.968-0.537 1.392 0 0.392 0.152 0.939 0.371 1.333 0.043 0.077 0.072 0.147 0.064 0.156-0.075-0.042-0.138-0.094-0.193-0.154l-0.001-0.001c-0.179-0.168-0.433-0.603-0.433-0.739 0-0.091-0.059-0.073-0.32 0.093-0.487 0.313-0.837 0.631-1.3 1.18-0.675 0.803-1.595 1.4-2.72 1.771-0.264 0.087-1.127 0.317-1.916 0.515-2.16 0.536-2.917 0.803-3.916 1.379-1.979 1.139-3.013 2.667-3.217 4.753-0.072 0.747 0.031 1.879 0.245 2.689 0.033 0.121-0.173-0.149-0.303-0.4-0.232-0.444-0.38-0.992-0.453-1.68-0.067-0.615 0.007-1.84 0.149-2.496l0.020-0.093-0.476 0.020c-1.181 0.049-2.157 0.384-2.956 1.013-0.125 0.096-0.236 0.194-0.34 0.3l-0 0-0.080 0.096 0.020-0.093c0.037-0.169 0.227-0.539 0.38-0.74 0.32-0.423 0.964-0.827 1.636-1.028 0.176-0.053 0.716-0.185 1.2-0.293 0.485-0.107 0.904-0.203 0.933-0.211 0.027-0.008 0.12-0.144 0.205-0.301s0.24-0.404 0.343-0.547c0.103-0.145 0.181-0.268 0.175-0.275-0.199 0.015-0.378 0.039-0.553 0.072l0.032-0.005c-0.28 0.044-0.899 0.131-1.373 0.193-0.959 0.127-1.499 0.227-2 0.371-1.547 0.447-2.44 1.311-2.905 2.813l-0.12 0.389 0.063 0.183c0.1 0.297 0.44 0.96 0.667 1.296 0.884 1.32 2.272 2.391 3.975 3.065 0.387 0.152 0.432 0.18 0.632 0.377 0.119 0.116 0.211 0.216 0.205 0.221-0.024 0.025-1.005-0.232-1.429-0.373-1.081-0.362-2.017-0.881-2.836-1.541l0.017 0.013c-0.172-0.135-0.365-0.261-0.57-0.369l-0.021-0.010c-0.721-0.372-1.337-0.832-1.868-1.376l-0.001-0.002c-0.25-0.259-0.466-0.554-0.639-0.875l-0.010-0.021-0.137-0.256 0.196 0.18c0.427 0.392 1.044 0.793 1.349 0.879 0.069 0.019 0.067 0.007-0.059-0.215-0.168-0.293-0.332-0.639-0.468-0.998l-0.017-0.051c-0.091-0.252-0.219-0.47-0.379-0.659l0.003 0.003c-0.996-1.295-1.724-2.595-2.232-3.987l-0.156-0.431-0.027 0.141c-0.021 0.209-0.033 0.451-0.033 0.696 0 0.008 0 0.016 0 0.024v-0.001l-0.005 0.576 0.187 0.513c0.193 0.528 0.887 2.397 0.947 2.553 0.019 0.048 0.027 0.088 0.020 0.088s-0.121-0.139-0.253-0.307c-0.305-0.384-0.645-0.893-0.707-1.057l-0.049-0.125 0.019 0.112c0.099 0.597 0.364 1.493 0.621 2.097 0.781 1.835 2.067 3.444 3.629 4.543 1.523 1.071 3.589 1.823 5.417 1.971 0.176 0.013 2.777 0.028 5.78 0.031 4.691 0.003 5.507-0.003 5.796-0.044zM24.652 22.299c-0.382-0.079-0.721-0.207-1.032-0.378l0.019 0.010c-0.615-0.36-1.051-0.989-1.093-1.579-0.013-0.207-0.013-0.208 0.031-0.097 0.277 0.705 0.813 1.273 1.551 1.644 0.339 0.171 0.525 0.24 0.92 0.343l0.352 0.091-0.288-0.003c-0.159-0.001-0.365-0.015-0.459-0.031zM28.16 19.099c-0.321-0.077-0.68-0.364-0.779-0.627-0.026-0.084-0.040-0.18-0.040-0.28 0-0.129 0.025-0.252 0.069-0.365l-0.002 0.007 0.051-0.093 0.023 0.128c0.059 0.32 0.285 0.595 0.609 0.739 0.096 0.043 0.341 0.107 0.547 0.143 0.305 0.053 0.501 0.111 0.62 0.181 0.009 0.005 0.019-0.139 0.023-0.319 0.007-0.316 0.005-0.325-0.047-0.248-0.111 0.163-0.267 0.288-0.361 0.288-0.127 0-0.684-0.203-0.837-0.304-0.191-0.125-0.251-0.248-0.251-0.511 0-0.187-0.012-0.235-0.072-0.299l-0.072-0.077 0.152-0.139c0.253-0.229 0.407-0.288 0.76-0.288 0.343 0 0.489 0.053 0.729 0.257 0.341 0.293 0.456 1.009 0.257 1.605l-0.073 0.219-0.592 0.005c-0.051 0.002-0.111 0.003-0.171 0.003-0.191 0-0.38-0.009-0.566-0.027l0.024 0.002zM28.547 17.965c0.113-0.057 0.18-0.183 0.176-0.331-0.003-0.092-0.029-0.14-0.119-0.223-0.187-0.172-0.437-0.123-0.547 0.107-0.144 0.304 0.185 0.605 0.489 0.447zM25.833 29.416c-0.146-0.23-0.264-0.496-0.337-0.779l-0.004-0.019c-0.107-0.475-0.011-1.236 0.203-1.604l0.080-0.141-0.267 0.020c-0.12 0.011-0.267 0.018-0.415 0.021l-0.007 0h-0.153v0.236c0 0.472-0.219 1.048-0.563 1.477l-0.179 0.224 0.327 0.023c0.179 0.012 0.421 0.051 0.54 0.087 0.24 0.073 0.539 0.256 0.705 0.431 0.133 0.14 0.157 0.149 0.069 0.025zM30.223 28.296c0.242-0.098 0.435-0.273 0.553-0.494l0.003-0.006c0.115-0.233 0.239-0.851 0.261-1.301 0.015-0.287 0.007-0.427-0.036-0.624-0.053-0.249-0.245-0.692-0.364-0.841l-0.060-0.076-0.157 0.112c-0.347 0.248-0.623 0.287-0.973 0.133-0.171-0.073-0.267-0.093-0.531-0.104l-0.324-0.013-0.107 0.187c-0.308 0.545-0.773 0.971-1.333 1.222l-0.018 0.007-0.245 0.112-0.023 0.171c-0.091 0.7 0.377 1.183 1.403 1.445 0.536 0.137 0.715 0.157 1.273 0.148 0.424-0.007 0.523-0.017 0.677-0.077zM4.475 23.336c0.293-1.421 1.371-2.372 3.2-2.827 0.457-0.113 1.209-0.261 2.577-0.509 1.795-0.324 2.348-0.496 3.009-0.937l0.4-0.267-1.688-0.009c-2.069-0.012-2.34 0.013-3.147 0.28-0.511 0.171-1.012 0.395-2.397 1.077-0.659 0.325-1.204 0.585-1.211 0.579-0.012-0.013 0.499-0.46 0.76-0.664 0.856-0.675 2.257-1.453 3.153-1.753 1.531-0.512 2.707-0.611 5.188-0.433l1.187 0.084 0.463-0.115c0.453-0.113 0.917-0.201 1.792-0.343 0.184-0.026 0.335-0.055 0.484-0.089l-0.039 0.007c0.007-0.007-0.015-0.021-0.048-0.033-0.185-0.063-0.346-0.145-0.492-0.246l0.007 0.004c-0.076-0.046-0.141-0.094-0.201-0.148l0.001 0.001c0-0.007 0.413-0.008 0.92-0.003 0.92 0.011 0.923 0.011 1.245-0.077 2.003-0.541 3.645-2.016 4.523-4.060 0.183-0.427 0.501-1.337 0.477-1.363-0.009-0.009-0.116 0.044-0.237 0.117-0.307 0.189-0.96 0.512-1.34 0.664-0.865 0.357-1.867 0.595-2.915 0.663l-0.028 0.001-0.285 0.021-0.227 0.213c-0.8 0.753-2.004 1.469-3.104 1.848-0.613 0.211-0.995 0.297-2.968 0.672-0.977 0.185-2.087 0.403-2.467 0.481-2.757 0.58-4.521 1.305-5.475 2.252-0.324 0.32-0.499 0.569-0.688 0.973-0.096 0.205-0.2 0.365-0.351 0.533-0.256 0.297-0.451 0.656-0.558 1.050l-0.004 0.019c-0.124 0.496-0.068 1.221 0.144 1.841 0.075 0.221 0.271 0.676 0.291 0.676 0.019-0.052 0.036-0.114 0.047-0.178l0.001-0.006zM3.381 22.179l-0.033-0.488-0.347-0.52c-0.146-0.212-0.352-0.532-0.552-0.857l-0.072-0.126c-0.253-0.425-0.84-1.555-1.004-1.936l-0.068-0.16 0.017 0.128c0.035 0.243 0.2 0.899 0.316 1.257 0.257 0.8 0.684 1.681 1.147 2.377 0.209 0.313 0.604 0.837 0.619 0.823 0-0.004 0-0.009 0-0.014 0-0.171-0.008-0.339-0.024-0.506l0.002 0.021zM3.368 20.312c-0.101-0.528-0.053-1.243 0.115-1.665 0.071-0.18 0.217-0.475 0.235-0.475 0.007 0 0.059 0.127 0.115 0.28 0.101 0.283 0.24 0.553 0.281 0.552 0.013 0 0.079-0.095 0.147-0.211 0.067-0.115 0.213-0.331 0.325-0.48l0.205-0.271-0.127-0.080c-0.408-0.257-0.78-0.848-0.94-1.489-0.156-0.633-0.204-1.6-0.117-2.392 0.024-0.216 0.037-0.4 0.029-0.408-0.023-0.021-0.467 0.532-0.744 0.923-0.436 0.611-0.823 1.309-1.128 2.049l-0.025 0.070-0.141 0.352 0.139 0.392c0.441 1.196 1.006 2.232 1.697 3.168l-0.024-0.034c-0.007-0.103-0.021-0.199-0.044-0.292l0.002 0.012zM5.327 17.812c-0.093-0.387-0.133-0.896-0.133-1.801 0-0.871 0.007-1 0.075-1.377 0.089-0.491 0.255-1.057 0.405-1.384 0.111-0.237 0.431-0.789 0.449-0.771 0.005 0.005-0.031 0.316-0.080 0.689-0.144 1.075-0.173 1.471-0.151 2.091 0.025 0.711 0.152 1.6 0.229 1.6 0.031 0 0.040-0.151 0.037-0.664-0.001-0.051-0.002-0.11-0.002-0.17 0-0.777 0.118-1.526 0.336-2.23l-0.014 0.053c0.267-0.931 0.829-2.157 1.347-2.928 0.038-0.052 0.074-0.111 0.104-0.173l0.003-0.007c0-0.011-0.084-0.007-0.185 0.008-1.229 0.188-2.228 1.013-2.727 2.253l-0.124 0.307 0.013-0.217c0.043-0.625 0.167-1.504 0.253-1.793 0.011-0.032-0.020 0.013-0.067 0.099-0.369 0.683-0.72 2.635-0.719 4.005 0 1.004 0.179 1.729 0.541 2.211 0.171 0.227 0.448 0.361 0.408 0.2zM7.025 16.587c0.283-0.139 0.671-0.249 2.363-0.676 0.74-0.187 1.517-0.395 1.729-0.465 0.817-0.27 1.516-0.701 2.092-1.26l-0.001 0.001c0.616-0.592 0.823-0.907 1.017-1.549 0.089-0.297 0.089-0.299 0.147-0.224 0.247 0.327 0.243 1.109-0.007 1.6-0.035 0.067-0.051 0.124-0.036 0.124 0.067 0 0.42-0.261 0.568-0.42 0.388-0.415 0.568-0.793 0.88-1.853 0.055-0.202 0.109-0.365 0.172-0.525l-0.012 0.034c0.028-0.032 0.144 0.235 0.213 0.497 0.037 0.139 0.053 0.32 0.053 0.587-0.004 0.439-0.084 0.773-0.285 1.172l-0.115 0.227 0.171-0.092c0.413-0.221 1.167-1.144 1.488-1.823 0.177-0.329 0.28-0.72 0.28-1.136 0-0.017-0-0.033-0-0.049l0 0.002c0.003-0.567-0.116-0.939-0.459-1.433-0.448-0.647-1.457-1.4-2.34-1.748-0.136-0.053-0.224-0.121-0.379-0.293-0.111-0.123-0.187-0.223-0.168-0.223 0.040 0 0.629 0.16 1.027 0.279 0.94 0.28 1.677 0.693 2.245 1.256 0.657 0.651 0.969 1.335 0.965 2.115-0.004 0.691-0.247 1.317-0.781 2.025-0.104 0.136-0.187 0.253-0.187 0.263 0 0.027 0.512-0.203 0.832-0.371 0.404-0.213 1.056-0.653 1.307-0.877 0.348-0.316 0.813-1.093 1.013-1.696 0.193-0.588 0.225-1.248 0.084-1.793-0.124-0.481-0.44-1.036-0.833-1.465l-0.169-0.184h0.163c0.088 0 0.169-0.013 0.179-0.029 0.040-0.064-0.053-0.2-0.197-0.292-0.248-0.157-0.351-0.171-0.808-0.113-0.513 0.065-1.332 0.067-1.728 0.001-0.343-0.056-0.724-0.176-0.908-0.285l-0.125-0.075 1.164-0.016c0.887-0.013 1.228-0.029 1.433-0.069 0.297-0.057 0.507-0.137 0.576-0.223 0.040-0.048 0.031-0.068-0.080-0.184-0.357-0.369-1.023-0.827-1.693-1.167-1.067-0.554-2.329-0.879-3.667-0.879-0.017 0-0.035 0-0.052 0h0.003c-0.516 0-1.147 0.053-1.424 0.119l-0.080 0.019 0.096-0.103c0.125-0.133 0.544-0.339 0.853-0.416 0.547-0.139 1.305-0.187 2.044-0.133 1.032 0.077 1.773 0.267 2.769 0.709 0.211 0.093 0.411 0.169 0.444 0.167 0.080-0.007 0.179-0.099 0.228-0.216l0.041-0.096 0.1 0.215c0.055 0.12 0.1 0.231 0.1 0.251 0 0.079 0.059-0.009 0.096-0.147 0.014-0.061 0.038-0.115 0.070-0.163l-0.001 0.002c0.032-0.021 0.116 0.167 0.221 0.493l0.075 0.231 0.165-0.164c0.196-0.193 0.201-0.187 0.229 0.232l0.017 0.277 0.147-0.092c0.083-0.051 0.157-0.080 0.168-0.069 0.011 0.013 0.051 0.124 0.091 0.247 0.116 0.36 0.273 0.659 0.456 0.869 0.093 0.108 0.221 0.292 0.283 0.408s0.125 0.207 0.14 0.203c0.051-0.016 0.272-0.409 0.379-0.669 0.032-0.095 0.075-0.178 0.127-0.252l-0.002 0.003c0.044 0 0.069 0.356 0.053 0.756-0.005 0.059-0.007 0.128-0.007 0.198s0.003 0.139 0.008 0.207l-0.001-0.009c0.064-0.036 0.118-0.073 0.169-0.114l-0.003 0.002c0.052-0.042 0.11-0.079 0.172-0.11l0.005-0.002c0.068 0-0.081 1-0.193 1.289-0.043 0.107 0.047 0.053 0.255-0.155 0.116-0.115 0.211-0.191 0.211-0.168 0 0.081-0.188 0.781-0.256 0.955-0.075 0.178-0.145 0.319-0.221 0.457l0.013-0.025c-0.119 0.208-0.226 0.449-0.308 0.701l-0.008 0.028-0.023 0.089 0.156-0.107c0.171-0.117 0.253-0.153 1.191-0.521 0.828-0.325 1.295-0.551 1.483-0.719 0.2-0.179 0.311-0.396 0.311-0.613v-0.165l-0.092 0.125c-0.176 0.241-0.595 0.587-0.981 0.813l-0.128 0.075 0.1-0.109c0.424-0.467 0.715-1.115 0.716-1.603 0-0.176-0.045-0.432-0.101-0.569-0.041-0.1-0.043-0.097-0.28 0.484-0.273 0.672-0.533 1.211-0.708 1.469-0.259 0.381-0.644 0.725-0.877 0.784-0.080 0.020-0.085 0.016-0.056-0.040 0.055-0.101 0.129-0.428 0.163-0.715 0.019-0.149 0.040-0.892 0.051-1.649 0.017-1.349 0.040-1.708 0.124-2.068 0.041-0.177 0.041-0.181-0.096-0.544-0.087-0.234-0.163-0.411-0.244-0.584l0.020 0.048c-0.089-0.179-0.287-0.453-0.325-0.453-0.013 0-0.093 0.16-0.183 0.356l-0.16 0.356-0.016-0.3c-0.013-0.24-0.029-0.32-0.085-0.397-0.163-0.202-0.356-0.373-0.573-0.508l-0.010-0.006c-0.271-0.167-0.587-0.328-0.917-0.464l-0.045-0.016c-0.076-0.023-0.076-0.021-0.053 0.149 0.012 0.093 0.031 0.207 0.040 0.248 0.019 0.073 0.013 0.076-0.103 0.053-0.218-0.044-0.404-0.155-0.542-0.311l-0.001-0.001c-0.081-0.088-0.156-0.153-0.165-0.144 0.016 0.112 0.044 0.212 0.083 0.307l-0.003-0.008c0.051 0.156 0.088 0.291 0.080 0.299-0.021 0.021-0.243-0.064-0.339-0.133-0.095-0.096-0.178-0.204-0.245-0.322l-0.004-0.008c-0.086-0.145-0.183-0.271-0.294-0.383l0 0c-0.208-0.177-0.304-0.2-1.293-0.303-0.22-0.017-0.423-0.069-0.611-0.151l0.012 0.005c-0.048-0.020-0.045 0 0.021 0.152 0.043 0.096 0.088 0.227 0.099 0.288l0.021 0.112-0.139-0.027c-0.213-0.040-0.473-0.144-0.712-0.288-0.211-0.128-0.225-0.131-0.601-0.155-0.101-0.007-0.218-0.012-0.336-0.012-0.343 0-0.679 0.036-1.002 0.104l0.032-0.006-0.24 0.059 0.24 0.027c0.32 0.033 0.6 0.123 0.769 0.247 0.137 0.099 0.252 0.213 0.253 0.255 0 0.011-0.253 0.027-0.567 0.036-0.901 0.024-1.469 0.167-2.268 0.567-0.4 0.2-1.499 0.909-1.771 1.141-0.16 0.137-0.452 0.523-0.453 0.596 0 0.040 0.061 0.072 0.233 0.12 1.293 0.372 2.103 1.312 2.263 2.627 0.116 0.945 0.099 1.531-0.060 2.16-0.244 0.967-0.875 1.899-1.581 2.337-0.26 0.161-0.8 0.369-0.961 0.371h-0.091l0.165-0.181c0.387-0.423 0.667-0.96 0.856-1.644 0.105-0.38 0.116-0.781 0.027-1.083-0.064-0.217-0.084-0.22-0.147-0.023-0.095 0.273-0.209 0.509-0.348 0.729l0.008-0.014c-0.067 0.103-0.516 0.576-1.021 1.080-1.149 1.141-1.631 1.735-2.080 2.559-0.34 0.631-0.592 1.364-0.715 2.141l-0.005 0.039c-0.067 0.528-0.049 1.424 0.028 1.424 0.013 0 0.125-0.049 0.251-0.112zM22.261 11.787c0.828-0.279 1.471-0.579 2.013-0.937 0.392-0.259 0.908-0.767 1.2-1.179 0.285-0.405 0.7-1.284 0.636-1.349-0.036-0.035-0.6 0.179-0.789 0.299-0.204 0.131-0.327 0.229-0.931 0.748-0.595 0.511-0.713 0.597-1.017 0.743-0.317 0.153-0.507 0.168-0.709 0.053-0.051-0.023-0.094-0.054-0.131-0.091l-0-0c0-0.009 0.059-0.053 0.128-0.096 0.139-0.087 0.405-0.344 0.38-0.369-0.16 0.065-0.296 0.136-0.424 0.217l0.011-0.007c-1.083 0.617-1.651 1.133-1.744 1.589-0.027 0.131 0.007 0.133 0.351 0.021 0.837-0.273 1.829-0.795 3.077-1.617 0.363-0.239 0.541-0.336 0.704-0.383 0.068-0.025 0.147-0.042 0.229-0.048l0.003-0c0.040 0.040-0.36 0.5-0.684 0.789-0.811 0.723-1.547 1.211-2.397 1.585-0.213 0.093-0.372 0.171-0.353 0.171s0.22-0.061 0.448-0.14zM23.448 6.736c0.341-0.513 0.448-0.899 0.493-1.773 0.043-0.825 0.131-1.317 0.353-1.96 0.053-0.152 0.089-0.28 0.083-0.288-0.033-0.033-0.355 0.388-0.467 0.613-0.32 0.649-0.571 1.792-0.689 3.147-0.027 0.296-0.048 0.551-0.048 0.567 0 0.056 0.133-0.093 0.275-0.305z"></path>
</symbol>

<symbol id="icon-prestashop" viewBox="0 0 32 32">
<path fill="#df0067" style="fill: var(--color6, #df0067)" d="M15.411 1.379c-8.512 0-15.411 6.901-15.411 15.411 0 1.677 0.268 3.293 0.765 4.796l0.003-0.009c0.203-0.93 0.446-1.727 0.745-2.495l-0.039 0.113 0.015-0.040c0.113-0.296 0.239-0.589 0.369-0.88l0.112-0.241c0.107-0.228 0.22-0.453 0.337-0.676 0.048-0.091 0.093-0.181 0.144-0.271 0.027-0.051 0.059-0.097 0.085-0.147 0.125-0.221 0.253-0.443 0.387-0.657l0.1-0.152c0.167-0.26 0.341-0.515 0.524-0.764l0.047-0.067c0.192-0.257 0.393-0.507 0.601-0.751l0.133-0.157c0.207-0.236 0.42-0.467 0.641-0.689l0.132-0.129c0.228-0.226 0.465-0.445 0.71-0.655l0.018-0.015c0.987-3.307 4.007-5.713 7.581-5.713 1.439 0 2.869 0.413 4.095 1.164 1.259 0.786 2.263 1.873 2.927 3.164l0.030 0.065 0.053 0.099v0.004l0.005 0.003c0.787 0.49 1.47 1.017 2.097 1.604l-0.007-0.007c0.053 0.049 0.108 0.095 0.16 0.145 0.003 0 0.008 0.007 0.009 0.008l-0.003-0.008-0.001-0.005v-0.004l0.056-0.112c0.503-3.179 1.907-5.469 3.56-5.469 1.245 0 2.349 1.3 3.035 3.301l0.007 0.021 0.001 0.003c0.193 0.211 0.383 0.441 0.565 0.695l0.009 0.013 0.028 0.089-0.027-0.104c-2.056-6.092-7.817-10.476-14.601-10.479zM13.236 7.303c-3.121 0.057-6.116 2.207-7.137 5.184l-0.016 0.045c0.513-0.415 1.086-0.809 1.688-1.159l0.065-0.035c3.741-2.208 8.639-2.195 12.371 0.021-1.193-2.204-3.508-3.759-6-4.005-0.256-0.034-0.551-0.053-0.851-0.053-0.042 0-0.084 0-0.126 0.001l0.006-0zM26.348 7.969c-0.187 0.005-0.366 0.037-0.533 0.093l0.013-0.004c-1.687 0.749-2.292 2.764-2.708 4.404l-0.021 0.096c0.487-0.827 1.077-1.62 1.861-2.189 1.113-0.916 2.807-0.873 3.888 0.071 0.411 0.435 0.188 0.011 0.041-0.293-0.456-1-1.367-2.204-2.541-2.177zM16.467 11.087l-1.427 4.36-0.003 0.007-0.008 0.003-6.009 1.483 5.941 1.449c0.14 0.147 0.303 0.273 0.48 0.373h0.003c0.056 0.032 0.113 0.060 0.172 0.087l0.013 0.007c0.055 0.024 0.111 0.044 0.168 0.063l0.028 0.011c0.053 0.017 0.107 0.031 0.16 0.043l0.044 0.011c0.127 0.027 0.273 0.043 0.423 0.044h0.001c0.002 0 0.004 0 0.006 0 0.851 0 1.581-0.515 1.896-1.251l0.005-0.013c0.107-0.248 0.164-0.52 0.164-0.805v-0.015l-0.001-0.016c-0.001-0.072-0.005-0.143-0.013-0.213l-0.001-0.003c-0.009-0.080-0.022-0.149-0.037-0.218l0.003 0.014-0.001-0.005c-0.033-0.147-0.077-0.275-0.133-0.397l0.005 0.013v-0.004c-0.115-0.255-0.272-0.472-0.463-0.652l-0.001-0.001v-0.004zM20.664 11.921c0.064 1.344 0.048 2.728-0.133 4.076-0.227 2.691-1.587 5.064-2.629 7.488l-0.040 0.107-0.047 0.115c2.013-2.029 4.227-4.053 5.292-6.776 0.511-0.848 0.157-1.789-0.153-2.635-0.227-1.169-1.425-1.704-2.289-2.375zM28.893 12.684l-0.784 3.584c-0.022 0.071-0.044 0.161-0.061 0.252l-0.002 0.014c-0.003 0.027-0.009 0.053-0.013 0.080-0.013 0.088-0.020 0.191-0.021 0.295v0.001l-0.003 0.041h0.004c0 0.837 0.396 1.515 0.884 1.516 0.089-0.001 0.172-0.023 0.246-0.061l-0.003 0.001 0.036-0.020c0.036-0.020 0.066-0.041 0.095-0.064l-0.001 0.001c0.017-0.013 0.032-0.029 0.048-0.044 0.070-0.065 0.131-0.138 0.18-0.22l0.003-0.004 0.040-0.072c0.021-0.038 0.044-0.085 0.065-0.133l0.004-0.011 0.023-0.053c0.027-0.071 0.051-0.144 0.071-0.221l0.003-0.003 0.001-0.004 0.539-0.601-0.543-0.608v0.001l-0.027-0.084zM23.052 13.825c0.92 2.288 1.133 4.943 0.121 7.24-0.653 1.824-2.116 3.284-2.499 5.207 0.973 0.153 1.957 0.235 2.947 0.248 2.888 0.039 5.776-0.56 8.379-1.82-2.72-3.825-5.495-7.673-8.948-10.875zM16.455 15.128c0.429 0 0.777 0.348 0.777 0.777s-0.348 0.777-0.777 0.777v0c-0.429 0-0.777-0.348-0.777-0.777s0.348-0.777 0.777-0.777v0zM28.924 15.621c0.184 0 0.332 0.253 0.332 0.568s-0.148 0.568-0.332 0.568c-0.183 0-0.331-0.253-0.331-0.568 0-0.313 0.147-0.568 0.331-0.568zM23.532 15.867c-0.021 0.149-0.044 0.279-0.067 0.387l-0.008 0.031c-0.013 0.067-0.029 0.125-0.044 0.171-0.64 1.889-1.7 3.36-3.147 4.929-0.196 0.213-0.401 0.427-0.612 0.645-0.535 0.554-1.054 1.077-1.581 1.594l-0.013 0.013c-0.149 0.147-0.345 0.348-0.567 0.581-0.137 0.383-0.293 0.813-0.424 1.267-0.059-0.021-0.115-0.041-0.175-0.065-2.811-1.087-4.692-2.539-4.692-2.539s1.448 1.885 3.887 3.653c0.236 0.172 0.468 0.32 0.696 0.452-0.1 1.592 0.603 3.12 3.773 3.576 0.258 0.037 0.557 0.058 0.86 0.058 0.274 0 0.544-0.017 0.809-0.050l-0.032 0.003-0.013-0.039c-0.002-0.005-0.003-0.010-0.006-0.014l0 0c0 0-0.223-0.177-0.505-0.503-0.302-0.345-0.562-0.739-0.765-1.165l-0.013-0.031c-0.158-0.332-0.281-0.718-0.351-1.123l-0.004-0.027c-0.034-0.203-0.054-0.436-0.054-0.674 0-0.22 0.017-0.435 0.049-0.646l-0.003 0.024c0.023-0.16 0.053-0.321 0.096-0.488 0.124-0.499 0.34-1.029 0.676-1.589l0.003-0.004 0.321-0.539c1.471-2.48 2.396-4.367 2.008-7.255-0.037-0.28-0.073-0.496-0.115-0.71l0.012 0.075zM29.756 16.635l0.001 0.011zM29.773 16.905l0.004 0.048v0.013c0 0.017-0.004 0.033-0.004 0.051 0-0.019 0.004-0.037 0.004-0.057 0-0.019-0.003-0.035-0.004-0.055zM29.757 17.272v0.001l-0.003 0.013-0.003 0.019zM31.561 25.176c-3.404 1.517-7.253 1.92-10.923 1.343-0.187 1.477 0.512 2.957 1.619 3.907l0.016 0.013c3.604-0.577 6.633-2.891 9.288-5.263z"></path>
</symbol>


<symbol id="icon-apacheopenoffice" viewBox="0 0 32 32">
<path fill="#0e85cd" style="fill: var(--color3, #0e85cd)" d="M16 0c-8.837 0-16 7.163-16 16v0c0.002 1.162 0.123 2.295 0.352 3.388l-0.019-0.108c1.32-0.375 2.837-0.598 4.405-0.613l0.009-0c0.013-0 0.029-0 0.044-0 2.472 0 4.818 0.54 6.926 1.509l-0.103-0.043 1.013-0.667c2.49-1.533 5.507-2.441 8.735-2.441 2.312 0 4.516 0.466 6.522 1.309l-0.111-0.041c0.086 0.041 0.145 0.127 0.147 0.227v0c0 0.002 0 0.004 0 0.007 0 0.067-0.031 0.127-0.080 0.166l-0 0c-0.026 0.010-0.056 0.015-0.087 0.015s-0.061-0.006-0.088-0.016l0.002 0.001h-0.333c-0.177-0.010-0.385-0.015-0.593-0.015s-0.416 0.006-0.622 0.016l0.029-0.001c-0.175-0.006-0.381-0.010-0.587-0.010-4.457 0-8.518 1.695-11.573 4.476l0.014-0.012c-0.559 0.542-1.071 1.126-1.533 1.748l-0.027 0.038-0.147 0.2c-0.024 0.010-0.051 0.016-0.080 0.016s-0.056-0.006-0.081-0.016l0.001 0.001c-0.024 0.009-0.051 0.015-0.080 0.015s-0.056-0.005-0.082-0.015l0.002 0.001c-2.774-2.372-6.403-3.815-10.37-3.815-0.245 0-0.489 0.006-0.731 0.016l0.034-0.001c2.263 6.268 8.16 10.667 15.085 10.667 8.837 0 16-7.163 16-16 0-8.834-7.159-15.995-15.991-16h-0zM28.52 9.573h-0.747c-0.415-0.065-0.895-0.102-1.382-0.102-2.719 0-5.17 1.15-6.893 2.99l-0.005 0.005c-0.080 0.080-0.16 0.093-0.24 0-1.616-1.71-3.863-2.808-6.367-2.919l-0.020-0.001c-0.267-0.026-0.578-0.040-0.891-0.040-0.628 0-1.241 0.058-1.837 0.17l0.061-0.010c-0.096 0-0.173-0.078-0.173-0.173v0c-0.008-0.020-0.012-0.043-0.012-0.067s0.005-0.047 0.013-0.068l-0 0.001c1.3-0.691 2.842-1.097 4.479-1.097 1.755 0 3.401 0.466 4.821 1.282l-0.047-0.025c1.396-0.815 3.074-1.296 4.864-1.296 1.527 0 2.973 0.35 4.261 0.975l-0.058-0.025 0.187 0.107c0.055 0.022 0.094 0.075 0.094 0.137 0 0.004-0 0.007-0 0.010l0-0c0.005 0.018 0.009 0.039 0.009 0.060s-0.003 0.042-0.009 0.062l0-0.002c-0.024 0.018-0.054 0.028-0.086 0.028-0.007 0-0.014-0.001-0.021-0.002l0.001 0z"></path>
</symbol>
<symbol id="icon-beatsbydre" viewBox="0 0 32 32">
<path fill="#e01f3d" style="fill: var(--color4, #e01f3d)" d="M16.013 0c-1.714 0-3.365 0.27-4.913 0.768l0.113-0.032v8.862c1.32-0.999 2.99-1.6 4.799-1.6 4.418 0 8 3.582 8 8s-3.582 8-8 8c-4.418 0-8-3.581-8-7.999v-13.865c-4.824 2.816-8.014 7.968-8.014 13.865 0 8.837 7.163 16 16 16s16-7.163 16-16c0-8.832-7.155-15.992-15.985-16h-0.001zM16.214 11.203c-0.060-0.003-0.13-0.004-0.2-0.004-2.651 0-4.8 2.149-4.8 4.8 0 0 0 0.001 0 0.001v-0c0 2.651 2.149 4.799 4.799 4.799h0c0.005 0 0.010 0 0.015 0 2.651 0 4.8-2.149 4.8-4.8 0-2.586-2.045-4.694-4.605-4.796l-0.009-0z"></path>
</symbol>
<symbol id="icon-nintendoswitch" viewBox="0 0 32 32">
<path fill="#e60012" style="fill: var(--color5, #e60012)" d="M18.901 32h4.899c4.501 0 8.2-3.699 8.2-8.2v-15.6c0-4.5-3.699-8.2-8.2-8.2h-5c-0.099 0-0.2 0.099-0.2 0.2v31.6c-0.001 0.101 0.1 0.2 0.301 0.2zM25 14.401c1.801 0 3.199 1.5 3.199 3.197 0 1.803-1.5 3.2-3.199 3.2-1.8 0-3.2-1.399-3.2-3.2-0.1-1.799 1.4-3.197 3.2-3.197zM15.2 0h-7c-4.5 0-8.2 3.7-8.2 8.2v15.6c0 4.501 3.7 8.2 8.2 8.2h7c0.099 0 0.2-0.099 0.2-0.199v-31.601c0.001-0.101-0.1-0.2-0.2-0.2zM12.901 29.401h-4.701c-3.101 0-5.601-2.5-5.601-5.601v-15.6c0-3.101 2.5-5.601 5.601-5.601h4.6zM5 9.599c0 1.7 1.3 3 3 3s3-1.3 3-3c0-1.697-1.3-3-3-3s-3 1.303-3 3z"></path>
</symbol>
</defs>
</svg>
